<svg width="24" height="24" viewBox="0 0 24 24" fill="none" xmlns="http://www.w3.org/2000/svg">
<mask id="mask0" mask-type="alpha" maskUnits="userSpaceOnUse" x="2" y="2" width="20" height="20">
<path d="M12 20C7.59 20 4 16.41 4 12C4 7.59 7.59 4 12 4C16.41 4 20 7.59 20 12C20 16.41 16.41 20 12 20ZM12 2C10.6868 2 9.38642 2.25866 8.17317 2.7612C6.95991 3.26375 5.85752 4.00035 4.92893 4.92893C3.05357 6.8043 2 9.34784 2 12C2 14.6522 3.05357 17.1957 4.92893 19.0711C5.85752 19.9997 6.95991 20.7362 8.17317 21.2388C9.38642 21.7413 10.6868 22 12 22C14.6522 22 17.1957 20.9464 19.0711 19.0711C20.9464 17.1957 22 14.6522 22 12C22 10.6868 21.7413 9.38642 21.2388 8.17317C20.7362 6.95991 19.9997 5.85752 19.0711 4.92893C18.1425 4.00035 17.0401 3.26375 15.8268 2.7612C14.6136 2.25866 13.3132 2 12 2ZM7 13H17V11H7" fill="#304FFE"/>
</mask>
<g mask="url(#mask0)">
<rect width="24" height="24" fill="#304FFE"/>
<rect y="24" width="24" height="24" transform="rotate(-90 0 24)" fill="#304FFE"/>
</g>
<mask id="mask1" mask-type="alpha" maskUnits="userSpaceOnUse" x="2" y="2" width="20" height="20">
<path d="M20 12C20 16.41 16.41 20 12 20C7.59 20 4 16.41 4 12C4 7.59 7.59 4 12 4C16.41 4 20 7.59 20 12ZM2 12C2 13.3132 2.25866 14.6136 2.7612 15.8268C3.26375 17.0401 4.00035 18.1425 4.92893 19.0711C6.8043 20.9464 9.34784 22 12 22C14.6522 22 17.1957 20.9464 19.0711 19.0711C19.9997 18.1425 20.7362 17.0401 21.2388 15.8268C21.7413 14.6136 22 13.3132 22 12C22 9.34783 20.9464 6.8043 19.0711 4.92893C17.1957 3.05357 14.6522 2 12 2C10.6868 2 9.38642 2.25866 8.17316 2.7612C6.95991 3.26375 5.85752 4.00035 4.92893 4.92893C4.00035 5.85752 3.26375 6.95991 2.7612 8.17317C2.25866 9.38642 2 10.6868 2 12ZM13 17L13 7L11 7L11 17" fill="#304FFE"/>
</mask>
<g mask="url(#mask1)">
<rect y="24" width="24" height="24" transform="rotate(-90 0 24)" fill="#304FFE"/>
<rect x="24" y="24" width="24" height="24" transform="rotate(180 24 24)" fill="#304FFE"/>
</g>
</svg>
