<svg xmlns="http://www.w3.org/2000/svg" xmlns:xlink="http://www.w3.org/1999/xlink" width="40" height="110" viewBox="0 0 40 110"><svg width="40" height="40" viewBox="0 0 40 40" fill="none" id="arrow-left" y="0"><mask id="a" maskUnits="userSpaceOnUse" x="12" y="12" width="16" height="16"><path d="M27.84 18.92v2h-12l5.5 5.5-1.42 1.42L12 19.92 19.92 12l1.42 1.42-5.5 5.5h12z" fill="#000"></path></mask><path fill="#fff" d="M0 0h40v40H0z" mask="url(#a)"></path></svg><svg width="24" height="24" viewBox="0 0 24 24" fill="none" id="calendar" y="40"><mask id="a" maskUnits="userSpaceOnUse" x="3" y="2" width="18" height="20"><path d="M19 20H5V9h14v11zM16 2v2H8V2H6v2H5c-1.11 0-2 .89-2 2v14a2 2 0 0 0 2 2h14a2 2 0 0 0 2-2V6a2 2 0 0 0-2-2h-1V2h-2zm1 11h-5v5h5v-5z" fill="#9E9E9E"></path></mask><path fill="#fff" d="M0 0h24v24H0z" mask="url(#a)"></path></svg><svg width="32" height="22" viewBox="0 0 32 22" fill="none" id="money" y="64"><path d="M0 22h28V4H0v18zm2-12a4 4 0 0 0 4-4h16a4 4 0 0 0 4 4v6a4 4 0 0 0-4 4H6a4 4 0 0 0-4-4v-6zm7 3a5 5 0 1 1 10 0 5 5 0 0 1-10 0zM32 0v20h-2V2H2V0h30z" fill="#fff"></path></svg><svg width="24" height="24" viewBox="0 0 24 24" fill="none" id="plus" y="86"><mask id="a" maskUnits="userSpaceOnUse" x="2" y="2" width="20" height="20"><path d="M12 20c-4.41 0-8-3.59-8-8s3.59-8 8-8 8 3.59 8 8-3.59 8-8 8zm0-18a10 10 0 1 0 0 20 10 10 0 0 0 0-20zM7 13h10v-2H7" fill="#304FFE"></path></mask><g mask="url(#a)" fill="#304FFE"><path d="M0 0h24v24H0z"></path><path d="M0 24V0h24v24z"></path></g><mask id="b" maskUnits="userSpaceOnUse" x="2" y="2" width="20" height="20"><path d="M20 12c0 4.41-3.59 8-8 8s-8-3.59-8-8 3.59-8 8-8 8 3.59 8 8zM2 12a10 10 0 1 0 20 0 10 10 0 0 0-20 0zm11 5V7h-2v10" fill="#304FFE"></path></mask><g mask="url(#b)" fill="#304FFE"><path d="M0 24V0h24v24z"></path><path d="M24 24H0V0h24z"></path></g></svg></svg>